#!OML:ASF F:\VICON\USERDATA\INSTALL\rory3\rory3.ASF
:FULLY-SPECIFIED
:DEGREES
750
root -0.702966 18.0662 1.60236 344.712 -85.2645 14.9614
lowerback 10.1596 1.18298 -0.809447
upperback 0.330886 1.47215 0.254581
thorax -5.38253 0.739569 0.506942
lowerneck -20.9432 -5.69122 -12.1752
upperneck 28.7799 -7.08946 8.50061
head 14.1105 -3.41901 4.15816
rclavicle -1.71452e-014 9.93923e-016
rhumerus -37.8863 -13.0429 -79.3199
rradius 33.1029
rwrist 5.00881
rhand -14.4105 8.67948
rfingers 7.12502
rthumb 11.7333 -20.9719
lclavicle -1.71452e-014 9.93923e-016
lhumerus -37.6944 5.43182 82.7786
lradius 35.0313
lwrist -4.29614
lhand -17.4048 23.9116
lfingers 7.12502
lthumb 8.8447 53.7062
rfemur -6.71306 -6.03166 24.1326
rtibia 25.7161
rfoot -14.6725 -6.05208
rtoes 14.6871
lfemur -4.10102 -2.28491 -20.7078
ltibia 17.8721
lfoot -11.1405 -0.433942
ltoes -17.2034
751
root -0.695785 18.0725 1.59654 344.121 -84.8416 15.6709
lowerback 10.1552 1.14148 -0.869413
upperback 0.339054 1.40616 0.185591
thorax -5.3701 0.707655 0.478575
lowerneck -21.0886 -5.71206 -12.3663
upperneck 28.8739 -7.11658 8.7335
head 14.2067 -3.41892 4.28496
rclavicle 2.29596e-014 -1.39149e-015
rhumerus -37.8225 -12.9206 -79.5171
rradius 33.2234
rwrist 4.58149
rhand -14.5055 8.70387
rfingers 7.12502
rthumb 11.6416 -20.9527
lclavicle 2.29596e-014 -1.39149e-015
lhumerus -37.5424 5.40402 82.8043
lradius 35.0095
lwrist -4.30119
lhand -17.6913 24.173
lfingers 7.12502
lthumb 8.56827 53.9791
rfemur -6.96903 -6.31001 23.9586
rtibia 25.9159
rfoot -14.7861 -6.1081
rtoes 15.227
lfemur -4.29841 -1.49728 -20.7929
ltibia 17.9679
lfoot -11.4678 -0.0183895
ltoes -17.1529
752
root -0.686147 18.0751 1.58862 344.574 -84.4503 15.2947
lowerback 10.1923 1.08426 -0.864567
upperback 0.385753 1.32754 0.150462
thorax -5.33963 0.667766 0.450617
lowerneck -21.4117 -5.6903 -12.7146
upperneck 29.0834 -7.07785 9.17146
head 14.4007 -3.37923 4.54248
rclavicle -2.13694e-015 -3.37934e-015
rhumerus -37.6648 -12.7812 -79.7403
rradius 33.2827
rwrist 4.38154
rhand -14.5776 8.6682
rfingers 7.12502
rthumb 11.5721 -20.9923
lclavicle -2.13694e-015 -3.37934e-015
lhumerus -37.3554 5.32733 82.8507
lradius 35.0017
lwrist -4.22464
lhand -18.0612 24.0858
lfingers 7.12502
lthumb 8.21125 53.9063
rfemur -7.16098 -6.63452 23.9019
rtibia 26.0532
rfoot -14.7965 -6.21272
rtoes 15.3244
lfemur -4.48375 -0.390381 -20.7797
ltibia 18.1433
lfoot -11.7761 0.949957
ltoes -19.5582
753
root -0.676207 18.0799 1.58166 344.593 -84.0294 15.3568
lowerback 10.2323 1.01973 -0.919938
upperback 0.423871 1.23299 0.127864
thorax -5.32129 0.621784 0.471842
lowerneck -21.6568 -5.68646 -12.949
upperneck 29.1594 -7.02328 9.38409
head 14.5013 -3.34779 4.68609
rclavicle -7.37988e-015 -2.5842e-015
rhumerus -37.4914 -12.6242 -79.8975
rradius 33.2637
rwrist 4.47473
rhand -14.7612 8.6034
rfingers 7.12502
rthumb 11.395 -21.067
lclavicle -7.37988e-015 -2.5842e-015
lhumerus -37.1441 5.35796 82.8973
lradius 34.9409
lwrist -4.17753
lhand -18.3323 23.846
lfingers 7.12502
lthumb 7.94958 53.6765
rfemur -7.31618 -6.83569 23.8039
rtibia 26.0876
rfoot -14.7779 -6.40288
rtoes 15.3064
lfemur -4.72061 0.648761 -20.8663
ltibia 18.4476
lfoot -11.684 2.73283
ltoes -22.4537
754
root -0.670621 18.0838 1.57538 345.262 -83.6429 14.7818
lowerback 10.2291 0.946244 -0.966359
upperback 0.426666 1.13425 0.204323
thorax -5.31742 0.575253 0.592378
lowerneck -21.686 -5.68542 -12.9681
upperneck 29.0463 -6.93481 9.22381
head 14.4382 -3.32711 4.63451
rclavicle 6.93262e-015 1.19271e-015
rhumerus -37.4006 -12.4314 -79.9206
rradius 33.2564
rwrist 4.69233
rhand -14.8449 8.62628
rfingers 7.12502
rthumb 11.3143 -21.0485
lclavicle 6.93262e-015 1.19271e-015
lhumerus -37.0197 5.5505 83.0045
lradius 34.8888
lwrist -4.20479
lhand -18.4646 23.7848
lfingers 7.12502
lthumb 7.82196 53.6202
rfemur -7.43473 -6.98341 23.8194
rtibia 26.0464
rfoot -14.7302 -6.73584
rtoes 14.9323
lfemur -4.96395 1.5015 -20.8418
ltibia 18.8153
lfoot -11.4221 4.58016
ltoes -21.0254
755
root -0.664637 18.0909 1.56635 345.955 -83.1907 14.1727
lowerback 10.3 0.861506 -1.07216
upperback 0.389752 1.01415 0.29942
thorax -5.39739 0.52055 0.767691
lowerneck -21.6606 -5.68129 -12.6885
upperneck 28.8924 -6.85438 8.75637
head 14.3189 -3.31725 4.39918
rclavicle 4.52235e-015 7.95139e-016
rhumerus -37.4046 -12.2104 -79.9352
rradius 33.3105
rwrist 4.70005
rhand -14.9207 8.65199
rfingers 7.12502
rthumb 11.2412 -21.0268
lclavicle 4.52235e-015 7.95139e-016
lhumerus -36.9781 5.80728 83.1317
lradius 34.9238
lwrist -4.23749
lhand -18.3594 23.9407
lfingers 7.12502
lthumb 7.92349 53.7722
rfemur -7.48956 -7.06464 23.8468
rtibia 25.9386
rfoot -14.6517 -7.15144
rtoes 14.9571
lfemur -5.2185 2.38537 -20.7836
ltibia 19.2225
lfoot -11.5098 6.13285
ltoes -18.2358
756
root -0.655913 18.1017 1.55702 346.915 -82.6187 13.2929
lowerback 10.4478 0.776661 -1.07545
upperback 0.321095 0.900171 0.304128
thorax -5.55006 0.465852 0.789255
lowerneck -21.6245 -5.72553 -12.2652
upperneck 28.7462 -6.91 8.30131
head 14.2146 -3.34968 4.12025
rclavicle -2.98425e-014 0
rhumerus -37.4666 -11.9469 -80.114
rradius 33.4006
rwrist 4.43551
rhand -15.0364 8.57939
rfingers 7.12502
rthumb 11.1297 -21.1055
lclavicle -2.98425e-014 0
lhumerus -36.983 5.90219 83.1549
lradius 35.031
lwrist -4.22031
lhand -17.7654 23.9796
lfingers 7.12502
lthumb 8.49674 53.7887
rfemur -7.49524 -7.18153 23.8786
rtibia 25.7294
rfoot -14.531 -7.55958
rtoes 15.5017
lfemur -5.5504 3.21183 -20.717
ltibia 19.7545
lfoot -11.7306 7.79584
ltoes -16.7627
